<svg xmlns="http://www.w3.org/2000/svg" version="1.1" xmlns:xlink="http://www.w3.org/1999/xlink" xmlns:svgjs="http://svgjs.dev/svgjs" width="2000" height="1247" viewBox="0 0 2000 1247"><g transform="matrix(1,0,0,1,-1.2121212121212466,0.504858299595071)"><svg viewBox="0 0 396 247" data-background-color="#dedede" preserveAspectRatio="xMidYMid meet" height="1247" width="2000" xmlns="http://www.w3.org/2000/svg" xmlns:xlink="http://www.w3.org/1999/xlink"><g id="tight-bounds" transform="matrix(1,0,0,1,0.2400000000000091,-0.09999999999999432)"><svg viewBox="0 0 395.52 247.2" height="247.2" width="395.52"><g><svg></svg></g><g><svg viewBox="0 0 395.52 247.2" height="247.2" width="395.52"><mask id="5ce6ce10-170d-4e41-ba08-2f82f8e4f9ba"><rect width="395.52" height="247.2" fill="white"></rect><g transform="matrix(1,0,0,1,174.89164122137404,37.08)" id="clone"><svg viewBox="0 0 45.7367175572519 173.04" height="173.04" width="45.7367175572519"><g><svg viewBox="0 0 45.7367175572519 173.04" height="173.04" width="45.7367175572519"><g><svg viewBox="0 0 45.7367175572519 173.04" height="173.04" width="45.7367175572519"><g><svg viewBox="0 0 45.7367175572519 173.04" height="173.04" width="45.7367175572519"><g id="SvgjsG1050"><svg viewBox="0 0 45.7367175572519 173.04" height="173.04" width="45.7367175572519" id="SvgjsSvg1049"><g><svg viewBox="0 0 45.7367175572519 173.04" height="173.04" width="45.7367175572519"><g transform="matrix(1,0,0,1,0,0)"><svg width="45.7367175572519" viewBox="-4.6 -38 14.85 53.4" height="173.04" data-palette-color="#000000"><path d="M0.05 12.4L-1.6 10.45Q1.85 7.2 3.3 3.15L3.3 3.15Q3.85 1.6 3.85 0L3.85 0 3.85-35 7.25-35 7.25 0Q7.25 0.15 7.25 0.3L7.25 0.3Q7.25 5.8 2.15 10.5L2.15 10.5Q0.9 11.65 0.05 12.4L0.05 12.4Z" opacity="1" transform="matrix(1,0,0,1,0,0)" fill="black" class="wordmark-text-0" id="SvgjsPath1048" stroke-width="5" stroke="black" stroke-linejoin="round"></path></svg></g></svg></g></svg></g></svg></g></svg></g></svg></g></svg></g></mask><g mask="url(#5ce6ce10-170d-4e41-ba08-2f82f8e4f9ba)"><g><path d="M183.474 245.607l-8.494-10.038c11.84-11.154 20.249-23.681 25.225-37.581v0c1.888-5.32 2.831-10.725 2.832-16.216v0-180.179h17.503v180.179c0 0.515 0 1.03 0 1.545v0c0 18.876-8.752 36.379-26.255 52.509v0c-4.29 3.947-7.894 7.207-10.811 9.781z" fill="#000000" fill-rule="nonzero" stroke="none" stroke-width="1" stroke-linecap="butt" stroke-linejoin="miter" stroke-miterlimit="10" stroke-dasharray="" stroke-dashoffset="0" font-family="none" font-weight="none" font-size="none" text-anchor="none" style="mix-blend-mode: normal" data-fill-palette-color="tertiary"></path></g></g><g transform="matrix(1,0,0,1,174.89164122137404,37.08)"><svg viewBox="0 0 45.7367175572519 173.04" height="173.04" width="45.7367175572519"><g><svg viewBox="0 0 45.7367175572519 173.04" height="173.04" width="45.7367175572519"><g><svg viewBox="0 0 45.7367175572519 173.04" height="173.04" width="45.7367175572519"><g><svg viewBox="0 0 45.7367175572519 173.04" height="173.04" width="45.7367175572519"><g id="textblocktransform"><svg viewBox="0 0 45.7367175572519 173.04" height="173.04" width="45.7367175572519" id="textblock"><g><svg viewBox="0 0 45.7367175572519 173.04" height="173.04" width="45.7367175572519"><g transform="matrix(1,0,0,1,0,0)"><svg width="45.7367175572519" viewBox="-4.6 -38 14.85 53.4" height="173.04" data-palette-color="#000000"><path d="M0.05 12.4L-1.6 10.45Q1.85 7.2 3.3 3.15L3.3 3.15Q3.85 1.6 3.85 0L3.85 0 3.85-35 7.25-35 7.25 0Q7.25 0.15 7.25 0.3L7.25 0.3Q7.25 5.8 2.15 10.5L2.15 10.5Q0.9 11.65 0.05 12.4L0.05 12.4Z" opacity="1" transform="matrix(1,0,0,1,0,0)" fill="#000000" class="wordmark-text-0" data-fill-palette-color="primary" id="text-0"></path></svg></g></svg></g></svg></g></svg></g></svg></g></svg></g></svg></g></svg></g><defs></defs></svg><rect width="395.52" height="247.2" fill="none" stroke="none" visibility="hidden"></rect></g></svg></g></svg>