<svg xmlns="http://www.w3.org/2000/svg" version="1.1" xmlns:xlink="http://www.w3.org/1999/xlink" xmlns:svgjs="http://svgjs.dev/svgjs" width="128" height="128" viewBox="0 0 128 128"><g transform="matrix(0.8046875,0,0,0.8046875,12.391207750582758,8.297454637096777)"><svg viewBox="0 0 143 155" data-background-color="#f7eee7" preserveAspectRatio="xMidYMid meet" height="138" width="128" xmlns="http://www.w3.org/2000/svg" xmlns:xlink="http://www.w3.org/1999/xlink"><g id="tight-bounds" transform="matrix(1,0,0,1,0.1510416666666572,0.25)"><svg viewBox="0 0 142.69791666666669 154.5" height="154.5" width="142.69791666666669"><g><svg viewBox="0 0 142.69791666666669 154.5" height="154.5" width="142.69791666666669"><g><svg viewBox="0 0 142.69791666666669 154.5" height="154.5" width="142.69791666666669"><g id="textblocktransform"><svg viewBox="0 0 142.69791666666669 154.5" height="154.5" width="142.69791666666669" id="textblock"><g><svg viewBox="0 0 142.69791666666669 154.5" height="154.5" width="142.69791666666669"><g transform="matrix(1,0,0,1,0,0)"><svg width="142.69791666666669" viewBox="2.4 -36 33.25 36" height="154.5" data-palette-color="#e73d38"><path d="M11.6-33L11.6-3 19.35-3Q22.05-3 23.98-3.8 25.9-4.6 27.15-6.3L27.15-6.3Q28.55-8.05 29.23-10.9 29.9-13.75 29.9-17.7L29.9-17.7Q29.9-25.5 27.15-29.3L27.15-29.3Q25.85-31.2 23.8-32.1 21.75-33 18.85-33L18.85-33 11.6-33ZM2.4-33.85L2.4-36 19.2-36Q26.65-36 30.8-31.8L30.8-31.8Q33.15-29.4 34.4-25.9 35.65-22.4 35.65-18.4L35.65-18.4Q35.65-14.2 34.33-10.53 33-6.85 30.65-4.35L30.65-4.35Q26.5 0 18.75 0L18.75 0 2.4 0 2.4-2.15 6.6-3.2 6.6-32.8 2.4-33.85Z" opacity="1" transform="matrix(1,0,0,1,0,0)" fill="#e73d38" class="wordmark-text-0" data-fill-palette-color="primary" id="text-0"></path></svg></g></svg></g></svg></g></svg></g><g></g></svg></g><defs></defs></svg><rect width="142.69791666666669" height="154.5" fill="none" stroke="none" visibility="hidden"></rect></g></svg></g></svg>