<svg xmlns="http://www.w3.org/2000/svg" version="1.1" xmlns:xlink="http://www.w3.org/1999/xlink" xmlns:svgjs="http://svgjs.dev/svgjs" width="2000" height="1500" viewBox="0 0 2000 1500"><rect width="2000" height="1500" fill="#000000"></rect><g transform="matrix(0.75,0,0,0.75,249.090909090909,282.7536437246963)"><svg viewBox="0 0 396 247" data-background-color="#ffffff" preserveAspectRatio="xMidYMid meet" height="1247" width="2000" xmlns="http://www.w3.org/2000/svg" xmlns:xlink="http://www.w3.org/1999/xlink"><g id="tight-bounds" transform="matrix(1,0,0,1,0.2400000000000091,-0.09999999999999432)"><svg viewBox="0 0 395.52 247.2" height="247.2" width="395.52"><g><svg></svg></g><g><svg viewBox="0 0 395.52 247.2" height="247.2" width="395.52"><g transform="matrix(1,0,0,1,179.71496697247704,47.215199999999996)"><svg viewBox="0 0 36.090066055045874 152.7696" height="152.7696" width="36.090066055045874"><g><svg viewBox="0 0 36.090066055045874 152.7696" height="152.7696" width="36.090066055045874"><g><svg viewBox="0 0 36.090066055045874 152.7696" height="152.7696" width="36.090066055045874"><g><svg viewBox="0 0 36.090066055045874 152.7696" height="152.7696" width="36.090066055045874"><g id="textblocktransform"><svg viewBox="0 0 36.090066055045874 152.7696" height="152.7696" width="36.090066055045874" id="textblock"><g><svg viewBox="0 0 36.090066055045874 152.7696" height="152.7696" width="36.090066055045874"><g transform="matrix(1,0,0,1,0,0)"><svg width="36.090066055045874" viewBox="0.4 -37.9 10.299999999999999 43.6" height="152.7696" data-palette-color="#ed3b43"><path d="M3.25 5.7Q1.6 5.7 0.4 5.45L0.4 5.45 0.4 1.15Q1.4 1.35 2.8 1.35L2.8 1.35Q4.05 1.35 4.67 0.93 5.3 0.5 5.58-0.63 5.85-1.75 5.85-3.95L5.85-3.95 5.85-37.9 10.7-37.9 10.7-3.65Q10.7 0.15 10.05 2.13 9.4 4.1 7.85 4.9 6.3 5.7 3.25 5.7L3.25 5.7Z" opacity="1" transform="matrix(1,0,0,1,0,0)" fill="#ffffff" class="wordmark-text-0" data-fill-palette-color="primary" id="text-0"></path></svg></g></svg></g></svg></g></svg></g></svg></g></svg></g></svg></g><g><path d="M141.645 0c30.402 0 58.24 10.976 79.768 29.183l-11.147 0c-19.26-14.022-42.974-22.294-68.621-22.295-25.647 0-49.361 8.272-68.621 22.295l-11.147 0c21.528-18.206 49.366-29.183 79.768-29.183zM141.645 247.2c-30.402 0-58.24-10.976-79.768-29.183h11.147c19.26 14.022 42.974 22.294 68.621 22.295 25.647 0 49.361-8.272 68.621-22.295l11.147 0c-21.528 18.206-49.366 29.183-79.768 29.183z" fill="#ffffff" stroke="transparent" data-fill-palette-color="tertiary"></path></g></svg></g><defs></defs></svg><rect width="395.52" height="247.2" fill="none" stroke="none" visibility="hidden"></rect></g></svg></g></svg>